<svg width="21" height="20" viewBox="0 0 21 20" fill="none" xmlns="http://www.w3.org/2000/svg">
<path d="M20.3102 18.9119L15.1466 13.8308C16.4988 12.3616 17.3296 10.4187 17.3296 8.28068C17.3289 3.7071 13.5618 0 8.91447 0C4.26713 0 0.5 3.7071 0.5 8.28068C0.5 12.8543 4.26713 16.5614 8.91447 16.5614C10.9224 16.5614 12.7641 15.8668 14.2107 14.7122L19.3944 19.8134C19.647 20.0622 20.0571 20.0622 20.3096 19.8134C20.3697 19.7547 20.4175 19.6846 20.4501 19.6072C20.4827 19.5299 20.4995 19.4467 20.4996 19.3628C20.4996 19.2788 20.4829 19.1957 20.4504 19.1182C20.4179 19.0408 20.3702 18.9707 20.3102 18.9119ZM8.91447 15.2873C4.98231 15.2873 1.79468 12.1504 1.79468 8.28068C1.79468 4.41101 4.98231 1.27403 8.91447 1.27403C12.8467 1.27403 16.0343 4.41101 16.0343 8.28068C16.0343 12.1504 12.8467 15.2873 8.91447 15.2873Z" fill="#0E0E0E"/>
</svg>
